<?xml version="1.0" standalone="no"?>
<!DOCTYPE svg PUBLIC "-//W3C//DTD SVG 20010904//EN"
 "http://www.w3.org/TR/2001/REC-SVG-20010904/DTD/svg10.dtd">
<svg version="1.0" xmlns="http://www.w3.org/2000/svg"
 width="500.000000pt" height="500.000000pt" viewBox="0 0 500.000000 500.000000"
 preserveAspectRatio="xMidYMid meet">
<metadata>
Created by potrace 1.14, written by Peter Selinger 2001-2017
</metadata>
<g transform="translate(0.000000,500.000000) scale(0.100000,-0.100000)"
fill="#000000" stroke="none">
<path d="M2464 4949 c-17 -5 -44 -23 -60 -41 l-29 -33 0 -338 0 -339 37 -34
c21 -19 47 -35 58 -35 75 -5 91 0 130 39 36 36 37 39 39 117 1 44 2 87 2 95 0
8 0 51 0 95 0 44 0 85 0 90 0 6 0 33 0 60 0 28 -1 73 0 100 0 99 -7 142 -30
173 -36 50 -87 68 -147 51z"/>
<path d="M1509 4701 c-40 -21 -71 -73 -71 -117 0 -19 31 -98 77 -195 43 -90
95 -201 116 -246 47 -101 73 -129 131 -144 39 -11 49 -10 84 7 21 10 49 34 61
53 38 56 31 95 -44 253 -132 275 -178 361 -205 381 -36 27 -106 31 -149 8z"/>
<path d="M3361 4704 c-29 -16 -46 -45 -146 -249 -126 -257 -141 -297 -131
-348 13 -68 61 -107 139 -112 59 -4 94 26 147 130 25 50 46 93 48 97 3 9 71
156 114 246 45 94 50 123 24 168 -11 20 -33 46 -47 57 -37 27 -106 32 -148 11z"/>
<path d="M835 4199 c-44 -12 -86 -60 -95 -109 -14 -78 -8 -87 214 -295 76 -71
151 -142 166 -156 67 -63 151 -64 216 -4 6 6 17 27 24 47 21 57 1 108 -69 176
-258 253 -329 320 -349 331 -30 16 -71 20 -107 10z"/>
<path d="M4051 4179 c-68 -50 -389 -369 -399 -397 -33 -96 33 -192 132 -192
30 0 77 22 105 48 10 9 67 62 126 117 235 217 268 258 258 319 -10 65 -45 107
-103 124 -52 15 -79 11 -119 -19z"/>
<path d="M2310 3834 c-41 -7 -84 -15 -95 -17 -11 -3 -33 -8 -50 -12 -42 -10
-116 -34 -140 -45 -11 -5 -48 -21 -82 -35 -34 -14 -78 -34 -98 -45 -19 -11
-52 -30 -72 -41 -111 -63 -245 -180 -348 -304 -28 -33 -53 -61 -57 -63 -5 -2
-8 -8 -8 -13 0 -5 -15 -31 -33 -57 -18 -26 -38 -58 -45 -72 -6 -14 -16 -32
-21 -40 -56 -88 -133 -325 -146 -450 -7 -67 -7 -296 0 -330 2 -13 7 -42 10
-65 4 -22 11 -58 17 -80 5 -22 12 -47 13 -55 16 -71 92 -248 147 -338 21 -34
38 -66 38 -71 0 -5 3 -11 8 -13 4 -2 26 -28 48 -58 85 -113 175 -205 254 -260
19 -13 37 -27 40 -31 9 -12 182 -114 235 -138 68 -32 242 -88 296 -96 24 -4
46 -8 49 -10 36 -22 401 -21 472 1 10 3 30 7 45 10 148 25 391 130 527 227
217 154 385 372 486 627 22 55 38 102 45 130 1 8 10 40 19 71 9 31 19 78 22
105 2 27 7 60 9 74 6 33 7 225 0 270 -2 19 -7 53 -10 75 -3 22 -14 74 -26 115
-11 41 -21 80 -23 85 -28 111 -146 329 -237 439 -33 40 -147 154 -195 195 -62
54 -173 125 -264 171 -47 23 -97 49 -112 56 -14 8 -31 14 -36 14 -6 0 -23 5
-39 11 -15 6 -29 10 -30 10 -2 0 -20 6 -41 13 -125 44 -422 65 -572 40z m-644
-1553 c2 4 11 6 18 3 23 -9 116 -9 116 -1 0 5 4 5 10 2 5 -3 60 -6 122 -5 177
0 221 -1 229 -6 4 -2 10 0 13 5 4 5 18 6 34 2 15 -4 39 -4 55 0 15 4 27 5 27
1 0 -4 39 -6 87 -4 49 2 93 3 98 3 79 -2 212 -3 220 -1 12 2 100 0 135 -3 14
-1 37 1 53 5 15 3 27 4 27 0 0 -6 254 -8 263 -2 8 5 77 4 77 -2 0 -4 14 -3 30
2 17 5 30 6 30 2 0 -4 14 -7 30 -7 17 0 30 3 30 7 0 4 11 3 25 -2 15 -6 26 -6
30 1 4 5 11 6 17 3 14 -9 103 -9 117 0 6 4 11 3 11 -2 0 -5 10 -8 23 -8 12 1
21 -3 20 -9 -8 -56 -15 -80 -38 -145 -14 -41 -29 -83 -32 -92 -3 -10 -15 -18
-27 -19 -11 0 -475 -2 -1030 -2 l-1009 -2 -15 35 c-8 19 -18 43 -23 52 -7 15
-49 169 -49 182 0 3 41 4 91 3 50 -1 93 1 95 4 2 4 22 3 44 -1 22 -4 43 -4 46
1z m1675 -555 c1 -11 -50 -65 -100 -106 -24 -19 -48 -40 -55 -45 -23 -22 -122
-84 -151 -95 -21 -8 -177 -12 -536 -11 l-507 0 -78 46 c-92 54 -150 100 -216
168 -27 27 -48 50 -48 51 0 6 1690 -1 1691 -8z"/>
<path d="M324 3506 c-51 -29 -76 -66 -79 -117 -4 -87 18 -106 268 -231 266
-133 303 -147 345 -136 66 18 104 59 116 123 6 31 -18 92 -45 115 -33 28 -485
249 -530 259 -30 7 -44 4 -75 -13z"/>
<path d="M4560 3506 c-73 -28 -459 -226 -482 -248 -92 -89 -26 -247 99 -235
24 3 95 30 165 65 68 33 175 85 238 116 116 57 179 103 181 134 6 69 3 86 -17
116 -41 59 -111 79 -184 52z"/>
<path d="M152 2621 c-65 -33 -91 -99 -68 -171 11 -33 45 -70 76 -82 14 -6 144
-10 302 -10 265 0 279 1 316 22 92 52 88 178 -8 234 -31 18 -55 20 -312 20
-219 1 -285 -2 -306 -13z"/>
<path d="M4253 2626 c-91 -30 -119 -153 -52 -222 37 -39 68 -46 179 -45 101 2
68 2 270 1 165 0 178 0 215 13 30 10 67 72 71 117 3 44 -22 89 -69 124 -26 19
-41 20 -307 21 -154 0 -292 -4 -307 -9z"/>
<path d="M750 1944 c-30 -14 -86 -41 -125 -59 -267 -125 -325 -156 -352 -190
-34 -42 -38 -86 -12 -141 16 -33 30 -46 67 -62 29 -13 58 -18 77 -15 17 3 104
42 195 86 91 44 167 81 170 82 13 3 147 76 161 87 69 56 47 181 -38 222 -47
22 -79 20 -143 -10z"/>
<path d="M4120 1957 c-65 -30 -99 -107 -77 -172 14 -40 48 -69 132 -109 39
-18 140 -67 225 -109 85 -41 170 -80 187 -85 85 -28 172 34 178 124 1 24 -2
47 -7 50 -4 3 -6 9 -3 14 5 8 -72 80 -86 80 -5 0 -79 35 -166 78 -87 43 -161
79 -165 80 -5 1 -37 16 -73 32 -69 32 -104 36 -145 17z"/>
<path d="M1186 1375 c-21 -8 -50 -24 -65 -38 -288 -267 -377 -358 -383 -391
-12 -59 20 -124 74 -152 78 -40 131 -20 249 92 98 95 137 132 214 203 31 30
66 68 76 85 63 103 -50 240 -165 201z"/>
<path d="M3730 1373 c-31 -11 -71 -58 -81 -96 -17 -63 2 -99 104 -196 50 -47
133 -128 186 -179 111 -107 162 -136 216 -126 83 15 138 102 113 176 -12 34
-41 65 -228 238 -68 63 -131 122 -139 130 -49 47 -75 60 -115 59 -22 0 -48 -3
-56 -6z"/>
<path d="M1775 953 c-44 -8 -77 -27 -97 -56 -12 -16 -70 -126 -131 -245 -101
-200 -109 -219 -103 -258 11 -85 91 -139 178 -121 41 8 78 50 120 134 23 48
48 91 53 95 6 4 7 8 3 8 -3 0 25 61 63 135 40 78 69 147 69 164 0 81 -82 157
-155 144z"/>
<path d="M3149 926 c-43 -29 -68 -77 -64 -122 1 -17 54 -135 116 -260 94 -189
120 -233 148 -252 64 -42 152 -22 198 45 37 55 32 77 -80 300 -134 266 -135
268 -178 293 -49 27 -96 26 -140 -4z"/>
<path d="M2465 797 c-16 -5 -38 -17 -49 -26 -43 -38 -46 -57 -46 -338 0 -248
2 -270 20 -300 27 -45 64 -66 115 -65 53 0 77 13 110 57 l27 34 0 270 c1 248
-1 272 -19 302 -32 57 -101 85 -158 66z"/>
</g>
</svg>
